<svg xmlns="http://www.w3.org/2000/svg" viewBox="0 0 64 64">
  <defs>
    <linearGradient id="metaBlue" x1="0" y1="0" x2="1" y2="1">
      <stop offset="0%" stop-color="#0866ff"/>
      <stop offset="100%" stop-color="#16a4ff"/>
    </linearGradient>
  </defs>
  <!-- Official-like Meta loop on transparent background -->
  <path d="M52.8 44.6c-3.9.1-7.2-3.9-11.7-11.2l-.9-1.5c-3.6-5.9-5.6-8.5-8.2-8.5-2.5 0-4.5 2.5-8 8.3l-1.2 2c-4.6 7.5-7.9 11.6-11.9 11.6-4.5 0-7.9-4.6-7.9-11.6 0-10.6 6.3-19.1 14.6-19.1 4.8 0 8 2.4 12 9 3.9-6.4 7.2-9 12-9 8.3 0 14.6 8.5 14.6 19.1 0 7.1-3.3 11.6-7.8 11.6Z" fill="none" stroke="url(#metaBlue)" stroke-width="6" stroke-linecap="round" stroke-linejoin="round"/>
</svg>
